<?xml version="1.0" encoding="utf-8"?>
<!-- Generator: Adobe Illustrator 18.0.0, SVG Export Plug-In . SVG Version: 6.00 Build 0)  -->
<!DOCTYPE svg PUBLIC "-//W3C//DTD SVG 1.1//EN" "http://www.w3.org/Graphics/SVG/1.1/DTD/svg11.dtd">
<svg version="1.1" id="レイヤー_1" xmlns="http://www.w3.org/2000/svg" xmlns:xlink="http://www.w3.org/1999/xlink" x="0px"
	 y="0px" viewBox="283.5 141.7 1133.9 1133.9" enable-background="new 283.5 141.7 1133.9 1133.9" xml:space="preserve">
<g>
	<path d="M2126.1,965.2c-2.1,6.5-6,12.5-5.6,19c0.9,16.9-11.3,23.8-22,31.9c-10.4,7.9-20.8,15.5-31.9,22
		c-29.4,16.4-58.3,32.9-91.6,40.7c-39.3,9.5-78.2,19.9-117.6,28.5c-14.8,3-30.8,2.1-46.3,3c-7.9,0.5-15.5,0-23.8,0
		c-17.4,0-34.5-0.5-51.8,0c-19.9,0.5-39.8,1.6-59.7,1.6c-23.4,0-47.2-1.4-70.6-1.6c-7.4,0-14.3,1.4-21.5,1.6
		c-36.3,2.1-70.6-6-105.1-16c-13.4-3.9-27.8-6-41.4-6.9c-21.3-1.4-42.3-0.5-63.2-0.5c-16.4,0-33.3,0.9-49.8-0.5
		c-11.6-0.9-23.4-4.4-34.9-6c-14.3-2.1-28.9-3.5-42.8-6.5c-16.9-3.5-33.8-8.1-50.7-13c-14.3-4.4-28-9-41.9-14.3
		c-4.4-1.6-8.1-4.4-11.3-7.4c-10.9-10.9-25.9-19-25.9-35.9c-7.9-3-14.3-6-21.3-7.9c-18-4.9-37.3-7.4-54.1-14.3
		c-34.2-13.9-68.3-28.9-85.6-65.7c-1.4-2.5-1.6-6-3-8.6c-3.5-8.6-3.9-17.8-13.4-25c-13.4-10.9-20.8-26.8-14.3-45.4
		c0.5-1.6,0-3.5,0-6.9c-7.4,0.9-13.9,2.5-20.8,2.5c-27.8-0.5-55.8,0.9-83.1-2.5c-25-3.5-48.8-13.9-72.2-25.5
		c-10.9-5.1-21.3-9-30.3-18c-10-10.4-13-21.5-7.4-33.8c7.4-17.4,16-34.5,26.4-50.2c15.2-21.7,29.7-44.1,48-62.6
		c25-25.5,53.7-48.4,81.2-71.3c10-8.1,22-13.4,33.3-19.9c4.4-2.5,6-4.4,5.1-10.4c-5.6-28.9-0.9-41.4,22.4-57.8
		c10.9-7.9,24.5-8.1,38.9-2.1c5.1-26.4,13.4-49.8,36.3-65.3c22.4-14.8,44.9-24.5,68.7-6.5c5.1-6,8.6-13,14.8-16.4
		c5.6-3,13.4-2.1,22-3c12-31.5,41-42.3,73.1-47.9c5.6-0.9,12.5,3.5,18.5,6c8.1,3.5,14.3,1.4,22.4-3c15.5-8.1,31.9-14.8,48.8-19.4
		c21.5-6,43.7-10,65.3-14.3c26.8-5.1,53.7-7.4,80.1,1.6c15,5.1,30.3,5.1,45.8,2.5c25.9-4.4,51.8-7.4,78.2,0
		c16.4,4.4,33.8,7.4,50.7,8.1c17.4,0.9,34.9-2.1,52.3-1.4c13.9,0.9,27.8,5.1,41,7.9c16.9,3.5,33.3,6.9,50.2,10.9
		c13.4,3,26.8,6,40.3,8.6c15.5,3,31.2,5.6,46.7,8.6c1.6,0.5,3,1.4,4.9,2.1c8.1,2.5,16.9,8.1,25,7.9c23.4-1.6,37.7,13,53.7,25.5
		c17.8,13.9,36.8,26.4,54.4,40.3c22,16.9,44.4,33.8,57.4,59.2c9.5,18.5,21.5,36.3,29.4,55.3c9,22.9,15,46.7,22,70.6
		c4.4,14.3,18,23.8,32.9,22c3.9-0.5,10.4,2.1,11.3,5.1c1.6,5.6,2.5,13.4,0,18.5c-3.9,7.9-9.5,16-16.4,20.4
		c-15,9.5-15.5,23.8-14.3,37.7c1.4,13,6.5,25.5,9,37.9c3,15.5,4.9,31.2,7.4,46.7c2.1,11.6,4.9,23.4,6.9,34.9
		c3.5,18,7.4,36.3,10.9,54.4c1.4,6.9,1.6,13.9,3.5,20.4c1.6,8.1,4.4,16,6,24.3C2126.1,948.3,2126.1,956.8,2126.1,965.2z
		 M1123.2,978.8c3.9,16.4,1.6,35.9,17.8,48.4c9,7.4,19.4,13,30.8,16.9c39.8,14.3,79.6,25.5,122.4,27.3c27.3,1.4,54.4,6,81.7,8.6
		c11.3,0.9,22.9,0.5,34.5,0.9c16,0.5,31.9-0.5,47.4,2.1c23.8,3.9,46.7,10.4,70.6,14.8c9.5,1.6,19-0.5,28.9,0.5
		c16.4,1.4,32.4,6.5,49.3,2.1c5.1-1.4,10.4-2.5,15.5-2.1c13.4,0.5,26.4,1.6,39.8,2.1c16,0.5,31.9,0,47.9,0.9c20.4,0.9,41,3.9,61.3,3
		c25.5-0.9,50.7-4.9,75.7-7.9c19.4-2.5,39.3-4.9,58.3-8.6c20.4-3.9,40.3-10,60.2-14.8c25.5-5.6,48.4-16.9,71.3-28.9
		c17.8-9,35.9-18,50.7-31.9c7.4-6.9,18-12,21.5-20.4c7.4-18,10-37.9,6.9-57.8c-0.9-5.6-3-10.9-3.9-16.4c-3.5-14.3-6.5-28.9-10-43.7
		c-3.5-14.3-8.1-28.5-10.4-43.3c-3-20.4-3.5-40.7-5.6-60.9c-0.5-3.9-2.1-7.9-3.5-11.6c-1.6-5.6-4.4-11.3-5.1-16.9
		c-1.6-12-2.1-24.5-3.5-36.8c-1.4-11.3-3-22-3.9-33.3c-0.9-8.1,0.9-17.4-1.4-25c-3.9-16.4-9.5-32.9-14.8-48.8
		c-5.6-16.9-10.9-33.3-17.8-49.8c-6.9-15.5-16.4-29.9-23.4-45.4c-14.3-32.4-41-52.3-68.7-72.2c-17.8-12.5-36.3-23.8-52.3-37.9
		c-10.4-9-20.8-14.8-34.2-16c-5.1-0.5-10.4-0.9-15-2.1c-9-2.1-18-5.1-27.3-7.4c-17.8-3.9-35.4-6.5-52.8-10.4
		c-15-3.5-29.9-8.1-45.4-11.6c-20.4-4.4-40.7-8.1-60.9-11.6c-10-1.6-20.4-2.5-30.3-3c-19.4-0.5-38.9,0.9-58.3-0.9
		c-13-0.9-25.9-5.6-38.9-8.1c-6.5-1.4-13-2.1-19.4-1.6c-9.5,0.5-20.4-0.9-28.5,3c-8.1,4.4-16.9,2.5-24.5,4.4
		c-10.4,2.5-22.4-2.5-34.2-4.9c-12.5-2.1-25-5.6-37.7-6c-28-1.6-55.3,4.4-82.6,11.6c-16,4.4-31.9,9-47.9,13
		c-16,3.9-26.8,12.5-31.2,28.9c-2.1,9-6,17.4-8.6,26.4c-5.6,19-11.6,37.9-16.4,57.4c-3.9,15.5-5.6,31.5-8.6,47.4
		c-9,45.4-18,90.7-27.3,136.1c-5.1,26.8-10.4,53.7-14.8,80.3c-3,19-6.5,37.9-8.1,57.2c-2.1,26.8-3,53.7-4.9,80.1
		c-0.9,13.4-1.6,26.8-3,40.3C1128.8,922.4,1125.8,950.4,1123.2,978.8z M910.8,554.4c-12.5,7.9-25.5,14.8-37.3,23.4
		c-17.4,12.5-34.2,25.9-50.2,39.8c-11.6,9.5-22,20.8-32.9,31.2c-11.6,10.9-19,24.3-27.8,36.8c-13.9,19.9-27.3,39.8-37.7,61.8
		c-10,20.8-2.5,39.3,19,47.4c16.9,6,34.2,10.4,50.2,18c18.5,9.5,38.4,9,57.4,10.4c23.4,1.6,47.2-1.4,70.6-0.5
		c9,0.5,11.6-6.5,17.4-10c1.6-0.9,2.5-6,2.1-8.1c-2.1-8.1-6.5-15.5-8.1-23.8c-2.1-8.1-4.9-17.4-3-25.5c6.9-36.3,27.8-65.7,50.2-93.5
		c9.5-11.6,10.9-16,1.6-28.5c-2.1-3-3-6.5-4.4-10c1.4-0.9,2.1-1.4,3.5-2.1c3,2.5,6.9,5.1,9.5,8.1c7.9,8.6,13.9,18.5,23.4,25.9
		c21.5,16.9,43.7,12,66.2,6c3-0.9,5.1-6.5,6.9-10.9c0.5-1.4-2.5-5.1-4.9-5.6c-21.5-7.4-36.8-24.5-55.8-36.3
		c-13.9-8.6-22.4-25.5-41.4-25c-6.9,0-13.9,1.4-20.4,0C944.1,579.4,926.1,569.5,910.8,554.4z"/>
	<path fill="#FFFFFF" d="M1123.2,978.8c3-28.5,5.6-56.7,8.1-84.2c1.4-13.4,2.1-26.8,3-40.3c1.6-26.8,2.1-53.7,4.9-80.1
		c1.6-19,4.9-37.9,8.1-57.2c4.9-26.8,9.5-53.7,14.8-80.3c9-45.4,18-90.7,27.3-136.1c3-16,5.1-31.9,8.6-47.4
		c4.9-19.4,10.9-38.4,16.4-57.4c2.5-8.6,6.5-17.4,8.6-26.4c4.4-16.4,15-25,31.2-28.9c16-3.9,31.9-8.6,47.9-13
		c26.8-7.4,54.4-13.4,82.6-11.6c12.5,0.9,25,3.9,37.7,6c11.3,1.6,23.8,6.9,34.2,4.9c8.1-1.6,16.4,0,24.5-4.4
		c7.9-3.9,18.5-2.5,28.5-3c6.5,0,13,0.5,19.4,1.6c13,2.5,25.9,7.4,38.9,8.1c19.4,1.4,38.9,0,58.3,0.9c10,0.5,20.4,1.4,30.3,3
		c20.4,3.5,40.7,7.4,60.9,11.6c15,3.5,29.9,8.1,45.4,11.6c17.4,3.9,34.9,6.9,52.8,10.4c9,2.1,18,5.1,27.3,7.4
		c5.1,1.4,10.4,1.6,15,2.1c13.4,1.4,23.8,6.9,34.2,16c16,14.3,34.5,25.5,52.3,37.9c27.8,19.4,54.4,39.8,68.7,72.2
		c6.9,15.5,16.4,29.9,23.4,45.4c6.9,16,12,32.9,17.8,49.8c5.1,16.4,10.9,32.4,14.8,48.8c2.1,8.1,0.5,16.9,1.4,25
		c0.9,11.3,3,22,3.9,33.3c1.4,12,1.6,24.5,3.5,36.8c0.9,5.6,3.5,11.3,5.1,16.9c1.4,3.9,3,7.9,3.5,11.6c1.6,20.4,2.5,40.7,5.6,60.9
		c2.1,14.8,6.9,28.5,10.4,43.3c3.5,14.3,6.5,28.9,10,43.7c1.4,5.6,3.5,10.9,3.9,16.4c3,19.9,0.5,39.8-6.9,57.8
		c-3.5,8.1-14.3,13.4-21.5,20.4c-14.8,13.9-32.9,22.4-50.7,31.9c-22.9,12-46.3,23.4-71.3,28.9c-20.4,4.9-39.8,10.4-60.2,14.8
		c-19.4,3.9-38.9,6-58.3,8.6c-25,3-50.7,6.9-75.7,7.9c-20.4,0.9-41-2.1-61.3-3c-16-0.5-31.9-0.5-47.9-0.9
		c-13.4-0.5-26.4-1.6-39.8-2.1c-5.1,0-10.4,0.9-15.5,2.1c-16.9,4.4-32.9-0.9-49.3-2.1c-9.5-0.9-19.4,1.4-28.9-0.5
		c-23.8-4.4-46.7-10.9-70.6-14.8c-15.5-2.5-31.5-1.6-47.4-2.1c-11.6-0.5-22.9,0.5-34.5-0.9c-27.3-2.5-54.4-7.4-81.7-8.6
		c-42.8-1.6-82.6-13-122.4-27.3c-11.6-3.9-21.5-9.5-30.8-16.9C1124.9,1014.5,1126.9,995.2,1123.2,978.8z M1773.2,561.8
		c3-0.9,6.9-0.9,8.6-2.5c9.5-11.3,15-24.3,10.9-38.9c-2.1-7.4-4.4-19.4-16-16.4c-9.5,2.1-20.8,6-26.4,13
		c-9,10.4-15.5,23.4-20.8,36.3c-2.5,6.5-2.1,16,0.9,22.4c3.5,7.9,10,14.8,20.4,15c10,0,15-6.5,19-13.9
		C1772.1,572,1772.1,566.5,1773.2,561.8L1773.2,561.8z M1648.7,549.6c7.9-7.4,14.8-15.5,22.9-21.3c9.5-6,18-16.4,31.9-13.4
		c1.4,0.5,5.6-3.9,5.1-5.6c-1.6-14.8-3.5-29.4-6.5-43.7c-1.6-8.6-6.9-10-13.4-3.9c-2.1,1.6-3.9,3.9-5.1,6.5
		c-8.6,13-17.4,26.4-25.9,39.3c-0.9-0.5-1.6-0.9-2.5-0.9c1.6-5.6,3.5-11.3,5.1-16.9c2.1-9,5.1-18,6-27.3c0.9-7.4-4.9-8.6-10-6
		c-5.1,2.5-9.5,7.4-13.4,10.4c-2.1-1.6-4.4-3-6.5-4.9c-1.4,1.6-3,3.9-3.5,5.6c-0.9,3.5-1.6,6.9-1.6,10.4
		c0.9,37.7,1.4,75.2,2.5,112.5c0,3,4.4,5.6,5.6,7.4c3.9-5.1,6-8.1,8.6-11.6c-0.9,0-1.4,0.5-2.1,0.5c-0.9-7.9-1.6-16-3-26.8
		c17.8,16,29.4,43.3,55.3,20.4c10.4-9,10.9-34.5,3-40.7c-2.1,13.9-13,17.4-23.4,22C1665.2,566.9,1665.2,567.4,1648.7,549.6z
		 M1322,429c-0.5-1.4-0.5-2.5-0.9-3.9c-8.1,4.9-17.4,8.1-23.8,14.3c-5.1,4.9-15,6.9-13,16.9c1.6,9,5.1,17.8,6.9,26.8
		c3.5,18,6.5,36.3,9.5,54.4c1.4,6.9,2.1,14.3,4.9,20.8c1.4,3,6,4.4,9,6.5c0.5-0.9,0.9-1.6,1.4-2.1c-0.5-2.5-1.4-5.1-2.1-9.5
		c6.9,2.1,12.5,3.5,17.8,5.6c18,8.1,43.3-6.5,42.3-25.9c-0.5-19-3-37.9-26.4-43.7c3.5-3,7.9-5.6,10-9c12-17.8,4.9-36.8-15.5-43.3
		C1335.4,434.3,1328.5,431.6,1322,429z M1602.9,738.6c0.9-7.9,1.4-11.3,1.4-14.8c0-8.1,0.5-16-0.9-24.3c-3-17.8-11.3-30.3-33.3-22.4
		c-17.8,6-40.3,46.7-35.9,64.8c0.9,3.9,4.9,8.6,8.1,9.5c7.9,2.5,16.4,3.9,24.5,4.4c11.6,0.9,24.5,9.5,27.3,19.9
		c3,10.4-3.5,24.5-13.4,31.2c-16.4,10-40.3,4.9-50.7-11.6c-4.4-6.9-4.9-14.3,2.1-20.4c1.4-1.4,2.1-3,3-4.4c-0.9-0.9-1.6-2.1-2.5-3
		c-3.9,3.5-9,6-11.3,10.4c-3.5,7.9-6.5,17.4,1.6,23.4c10.4,7.9,22,14.3,33.8,19c25.5,9.5,48.8-2.1,57.2-27.3
		c4.9-15-2.1-31.5-16.9-36.8c-11.3-3.9-23.8-5.6-35.4-8.1c-3-0.9-7.4-1.6-8.1-3.9c-4.4-10.4,8.1-27.8,19.4-29.4
		c13.9-2.1,16.4,9,22,16.9C1596.9,733.8,1599,735.2,1602.9,738.6z M1869.3,769.2c-5.1,39.8-14.8,78.7-1.6,120.1
		c15.5-18.5,7.9-40.3,15.5-58.8c6,13.9,16,17.8,29.9,12.5c0.5-0.5,1.4,0,2.1,0c16.9-0.9,27.3-10,30.3-26.4c1.4-7.9,1.4-16,2.5-23.8
		c1.6-10.9-2.5-22.4-12-28c-13.9-8.1-19.4-8.1-30.8,1.4c-6.9,5.6-13.9,11.6-20.8,17.8c-0.5-3.9-0.5-7.9-0.9-11.6
		C1879.2,771.5,1875.7,770.6,1869.3,769.2z M1651.1,756.2c0-5.6-0.5-9,0-12c3-13.4,6.5-26.4,9-39.8c0.5-3-2.5-9.5-4.9-10
		c-9-1.4-28.9,20.4-28,29.4c0.9,13.4,0.9,26.4,2.1,39.8c1.4,17.8,3.5,34.9,5.6,52.8c0.5,4.4,3,8.6,6,11.6c1.6,1.6,6,0.9,9,1.4
		c0-2.5,0.5-5.6,0-8.1c-0.5-3-2.5-6.5-1.6-8.6c5.1-16.4,10.9-32.4,17.4-48.4c2.1-5.1,8.1-9,13.9-15c0.9,5.6,1.6,8.6,2.1,11.6
		c1.4,16.9,2.1,34.2,3.5,50.9c0.9,10.4,6.5,14.8,18,13.4c-0.5-2.5,0-6.5-1.4-7.9c-9-9-9-21.3-9.5-32.4c-0.5-14.8,0.5-29.4,1.6-44.2
		c0.9-8.6-3.9-13.4-10-16.4c-2.1-1.4-8.1,1.6-10.9,4.9C1666.1,736.3,1659.6,745.1,1651.1,756.2z M1568.9,541.9
		c0.9,0,1.6,0.5,2.5,0.5c0.5,3.5,0.9,7.4,0.9,10.9c0.5,16,24.3,32.4,38.4,25c2.1-1.4,3.5-4.9,5.1-6.9c-2.5-0.9-5.6-3.5-7.4-3
		c-8.1,3.9-11.3-1.6-13.4-6.9c-6-13.9-7.4-28-5.6-43.3c0.5-4.9-3-10-4.9-14.8c-4.9,1.6-10.4,2.1-13.9,5.1
		c-5.6,4.4-10.4,10.4-16.9,17.8c1.6-10.9,3-19,4.4-27.8c-1.4-0.9-2.1-1.6-3.5-2.5c-4.4,2.5-8.6,5.1-13,7.9c-3,1.6-6,5.1-9,5.1
		c-6.5-0.5-6.5,0.9-5.1,6.5c5.6,22.4,10.4,45.4,15.5,68.3c1.4,0.5,2.5,0.9,3.9,1.4C1554.1,570.9,1561.5,556.1,1568.9,541.9z
		 M1855.4,517.6c2.5-6.5,4.9-12,6.5-18c0.9-3,0.9-7.9-0.9-10c-1.4-1.6-6-0.5-9.5,0c-3,0.5-6,1.4-9,2.1c-5.1,1.4-12,1.6-14.3,5.1
		c-2.5,3.9-1.6,10.9-1.6,16.4c0.5,13.9-1.6,17.4-16,17.8c-7.9,0-7.4,3.5-6,9c1.6,9.5,2.5,19,3.9,30.3c4.9-3,10-6,16.4-10
		c0,10.4-0.9,19.4,0,28.5c1.4,10.4,3.9,20.8,6,31.2c0.5,1.6,3,3,4.4,4.4c0.5-2.1,1.6-3.9,1.6-6c-0.5-6-2.5-12.5-1.6-18
		c2.5-15.5,6.5-31.2,10.4-46.7c0.5-2.5,3-4.9,5.1-6c6.5-5.1,13.4-9.5,19.4-14.8c5.1-4.4,3.5-10.4-3-12.5
		C1864.4,518.6,1860.7,518.6,1855.4,517.6z M1848.4,790c0-3.9,0-6.9,0-9.5c-0.5-13.4-8.6-20.8-20.8-19.4
		c-22,2.5-37.3,13.9-46.3,34.2c-6,14.3-3.5,32.4,5.1,39.3c13.9,10.9,25.9,10.9,38.4,0c2.1-1.6,4.4-7.9,3-9
		c-2.5-2.5-6.9-4.9-10.4-4.9c-4.4,0-8.1,2.5-12.5,3.5c-2.5,0.5-6.9-0.5-7.4-1.6c-1.4-3-0.9-6.9-0.9-10.4c2.5,0.5,5.6,0.9,8.1,1.6
		C1826.9,822.4,1851.9,816.4,1848.4,790z M1736.4,806.9c0.5-0.9,0.5-1.6,0.9-2.5c2.1,0.5,4.9,0.9,6.9,1.4
		c16.4,4.9,25.9,2.1,32.4-12.5c3.5-7.9,2.1-17.8,1.4-26.4c-0.5-3.9-4.4-9-8.1-10.9c-30.3-14.3-48.4-0.5-54.1,32.9
		c-1.6,10-3.5,22,5.6,29.4c7.4,6,16.9,10.9,25.9,11.6c4.4,0.5,9.5-9.5,16-16C1752.2,810.8,1744.3,808.5,1736.4,806.9z M1522.2,549.6
		c-0.9,0-2.1,0-3,0.5c-0.9,10-9.5,11.6-13.4,8.1c-6-4.9-13.4-14.3-12.5-20.8c1.6-10.4-3.9-16.9-6.9-24.5c-1.6-4.4-8.1-10-11.6-9
		c-5.6,0.9-13,5.1-15,10c-8.6,18.5-13,38.4-15.5,58.3c-0.5,4.9,1.6,8.6,8.1,8.1c9-0.9,16-5.1,21.3-13c2.5-3.9,5.6-6.9,9-11.3
		c3.9,12,12.5,19.9,21.5,17.4c7.9-2.1,14.8-8.1,21.5-13.4C1526.3,558.8,1523.3,553,1522.2,549.6z M1422.7,560.9
		c0-10.4-0.9-19,0-27.8c2.5-22.9,6.5-46.3,9.5-69.2c0.9-6.9,1.4-14.3,0.5-20.8c-0.5-3.5-3.5-7.9-6-10c-1.4-0.9-6,1.6-8.1,3.5
		c-5.6,4.9-11.3,9.5-16,15c-2.1,2.5-4.9,6.9-4.4,10c3.9,23.8,9,47.4,13.4,71.3c1.6,8.6,2.1,17.4,3,27.8
		C1416.7,560.9,1420.6,560.9,1422.7,560.9z M1982.9,846.7c5.6-8.1,11.3-16,16.4-24.3c0.9-1.4,0.5-3.5,0-4.9
		c-2.1-6.9-18.5-16.4-25-14.3c-6.5,2.1-11.6,6-10.4,14.3C1966,829.8,1969,841.8,1982.9,846.7z"/>
	<path fill="#FFFFFF" d="M910.8,554.4c15,15.5,32.9,25.5,54.1,28.9c6.5,1.4,13.4,0,20.4,0c19-0.5,27.8,16.4,41.4,25
		c18.5,11.6,34.2,28.9,55.8,36.3c2.1,0.9,5.1,4.4,4.9,5.6c-1.4,3.9-3.9,10-6.9,10.9c-22.4,6.5-44.4,10.9-66.2-6
		c-10-7.9-15.5-17.4-23.4-25.9c-2.5-3-6.5-5.6-9.5-8.1c-1.4,0.9-2.1,1.4-3.5,2.1c1.4,3.5,2.1,6.9,4.4,10c9,12,7.9,16.9-1.6,28.5
		c-22.4,27.8-43.3,57.4-50.2,93.5c-1.6,7.9,0.9,16.9,3,25.5c2.1,8.1,6,16,8.1,23.8c0.9,2.5-0.5,7.4-2.1,8.1
		c-5.6,3.5-8.1,10.4-17.4,10c-23.4-0.9-47.2,1.6-70.6,0.5c-19.4-1.4-38.9-0.9-57.4-10.4c-15.5-7.9-33.3-12-50.2-18
		c-21.5-7.9-28.9-26.4-19-47.4c10.4-22,23.8-41.9,37.7-61.8c8.6-12.5,16-26.4,27.8-36.8c11.3-10.4,21.5-21.3,32.9-31.2
		c16.4-13.9,32.9-27.3,50.2-39.8C885.8,569,898.3,562.3,910.8,554.4z M859.4,733.3c1.4-0.5,5.6-1.4,9.5-2.1
		c24.3-6.5,31.2-19.9,33.8-35.9c0.5-3-0.9-9-2.5-9.5c-4.9-1.6-10.9-1.6-16-1.4c-2.5,0.5-5.1,3.5-7.4,5.1
		c-10.9,8.1-21.5,8.1-31.9-1.4c-3.5-3-6-7.9-10-9.5c-3.9-1.6-10.9-2.5-13.4-0.5c-6.5,6.5-9,14.8-7.4,24.3
		C817.1,718.3,839.1,733.3,859.4,733.3z M1037.8,652.5c0-0.5,0-1.4,0-1.6c-12-9.5-24.3-19-36.3-28.9c-1.4,1.4-2.1,2.5-3.5,3.9
		c7.4,7.4,13.9,15.5,22,22C1025.4,651.2,1032.3,651.2,1037.8,652.5z"/>
	<path d="M1648.7,549.6c16.4,17.8,16.4,17.4,29.4,12c10.9-4.4,21.3-8.1,23.4-22c7.9,6.5,7.4,31.5-3,40.7
		c-26.4,22.9-37.9-4.4-55.3-20.4c1.4,11.3,2.1,19,3,26.8c0.9,0,1.4-0.5,2.1-0.5c-2.1,3-4.9,6.5-8.6,11.6c-1.4-1.6-5.6-4.4-5.6-7.4
		c-1.4-37.7-2.1-75.2-2.5-112.5c0-3.5,0.9-6.9,1.6-10.4c0.5-2.1,2.1-3.9,3.5-5.6c2.1,1.4,4.4,3,6.5,4.9c3.9-3,8.1-7.4,13.4-10.4
		c5.1-2.5,11.3-1.6,10,6c-1.4,9-3.9,18-6,27.3c-1.4,5.6-3.5,11.3-5.1,16.9c0.9,0.5,1.6,0.9,2.5,0.9c8.6-13,17.4-26.4,25.9-39.3
		c1.6-2.1,3.5-4.4,5.1-6.5c6.5-6,11.6-4.9,13.4,3.9c2.5,14.3,4.9,28.9,6.5,43.7c0,1.6-3.9,6-5.1,5.6c-13.9-3-22.4,7.4-31.9,13.4
		C1663.6,534.1,1656.6,542.4,1648.7,549.6z"/>
	<path d="M1322,429c6.9,2.5,13.4,5.1,20.4,7.4c20.8,6.5,27.8,25,15.5,43.3c-2.1,3.5-6.5,6-10,9c22.9,5.6,25.5,24.5,26.4,43.7
		c0.5,19.9-24.5,34.5-42.3,25.9c-5.1-2.1-10.9-3.5-17.8-5.6c0.9,4.9,1.6,6.9,2.1,9.5c-0.5,0.9-0.9,1.6-1.4,2.1c-3-2.1-7.9-3.9-9-6.5
		c-2.5-6.5-3.5-13.9-4.9-20.8c-3.5-18-6-36.3-9.5-54.4c-1.6-9-5.1-17.8-6.9-26.8c-2.1-10,8.1-12,13-16.9c6.5-6,15.5-9.5,23.8-14.3
		C1321.1,426.5,1321.5,427.9,1322,429z M1313.2,548c8.1,0.9,15,3,21.5,1.6c10.4-1.6,18.5-7.4,20.4-19c1.6-11.6,0.5-23.4-8.1-31.2
		c-3.5-3.5-12.5-3.5-17.8-1.6c-7.4,2.1-16.4,3.9-16,15.5C1313.7,524.6,1313.2,535.9,1313.2,548z M1315.1,492.6
		c9-6.9,17.8-12,24.3-19c3-3,4.9-10,3.5-14.3c-0.9-3.9-7.9-10-10.4-9c-4.9,1.4-10.9,6.5-12,10.9
		C1317.1,470.9,1316.7,481.8,1315.1,492.6z"/>
	<path d="M1602.9,738.6c-3.9-3.5-6-4.9-7.9-6.9c-5.6-8.1-8.1-19-22-16.9c-11.3,1.6-23.8,19.4-19.4,29.4c0.9,2.1,5.1,3.5,8.1,3.9
		c11.6,3,24.3,4.4,35.4,8.1c14.8,5.1,21.5,22,16.9,36.8c-7.9,25-31.5,36.8-57.2,27.3c-12-4.9-23.4-11.3-33.8-19
		c-8.1-6-5.1-16-1.6-23.4c2.1-4.4,7.4-6.9,11.3-10.4c0.9,0.9,1.6,2.1,2.5,3c-0.9,1.4-1.6,3.5-3,4.4c-7.4,6-6.5,13.4-2.1,20.4
		c10.4,16.4,34.5,22,50.7,11.6c10-6,16.4-20.8,13.4-31.2c-3-10-15.5-19-27.3-19.9c-8.1-0.5-16.9-1.6-24.5-4.4
		c-3.5-1.4-6.9-6-8.1-9.5c-4.4-18,18-58.3,35.9-64.8c22-7.9,30.3,4.9,33.3,22.4c1.4,7.9,0.9,16,0.9,24.3
		C1604.3,727.3,1603.9,731.2,1602.9,738.6z"/>
	<path d="M1869.3,769.2c6.5,1.4,10,2.1,14.3,3.5c0.5,3.9,0.5,7.9,0.9,11.6c6.9-6,13.9-12,20.8-17.8c11.3-9.5,17.4-9.5,30.8-1.4
		c9.5,5.6,13.9,17.4,12,28c-1.4,7.9-0.9,16-2.5,23.8c-3,16.9-13.4,25.5-30.3,26.4c-0.9,0-1.4-0.5-2.1,0
		c-13.4,5.6-23.4,1.4-29.9-12.5c-8.1,18.5,0,40.3-15.5,58.8C1854.5,847.8,1863.9,809,1869.3,769.2z M1886.2,816.8
		c0.5,13,13.4,22,25,16.9s16-15.5,13.9-31.2c-0.9-5.6-1.4-12-9.5-12.5C1903.3,789.5,1885.7,805.5,1886.2,816.8z"/>
	<path d="M1651.1,756.2c8.6-10.9,15-19.9,22.4-27.8c2.5-2.5,8.6-6,10.9-4.9c6,3,10.9,8.1,10,16.4c-1.4,14.8-2.1,29.4-1.6,44.2
		c0.5,11.3,0.5,23.4,9.5,32.4c1.6,1.6,0.9,5.1,1.4,7.9c-11.6,1.4-17.4-3-18-13.4c-1.4-16.9-2.1-34.2-3.5-50.9c-0.5-3-0.9-6-2.1-11.6
		c-5.6,6-11.6,9.5-13.9,15c-6.5,15.5-12,31.9-17.4,48.4c-0.9,2.5,1.4,5.6,1.6,8.6c0.5,2.5,0,5.6,0,8.1c-3-0.5-7.9,0.5-9-1.4
		c-3-3-5.1-7.4-6-11.6c-2.1-17.4-4.4-34.9-5.6-52.8c-1.4-13.4-1.4-26.4-2.1-39.8c-0.5-9.5,19-30.8,28-29.4c2.1,0.5,5.1,6.9,4.9,10
		c-2.1,13.4-6,26.8-9,39.8C1650.6,747.2,1651.1,750.2,1651.1,756.2z"/>
	<path d="M1568.9,541.9c-7.4,14.3-14.8,28.9-22,43.3c-1.4-0.5-2.5-0.9-3.9-1.4c-5.1-22.9-10-45.4-15.5-68.3
		c-1.4-5.6-1.4-7.4,5.1-6.5c3,0.5,6-3.5,9-5.1c4.4-2.5,8.6-5.1,13-7.9c1.4,0.9,2.1,1.6,3.5,2.5c-1.4,8.6-2.5,16.9-4.4,27.8
		c6.5-6.9,11.3-13,16.9-17.8c3.9-3,9-3.5,13.9-5.1c1.6,4.9,5.1,10,4.9,14.8c-1.6,15-0.9,29.4,5.6,43.3c2.5,5.1,5.6,10.9,13.4,6.9
		c1.6-0.9,4.9,1.6,7.4,3c-1.6,2.1-3,5.6-5.1,6.9c-14.3,7.4-37.9-9-38.4-25c0-3.5-0.9-7.4-0.9-10.9
		C1570.5,542.4,1569.6,542.4,1568.9,541.9z"/>
	<path d="M1855.4,517.6c5.1,0.9,9,0.9,12.5,2.1c6.5,1.6,7.9,8.1,3,12.5c-6.5,5.1-13.4,9.5-19.4,14.8c-2.1,1.6-4.4,3.9-5.1,6
		c-3.9,15.5-7.9,31.2-10.4,46.7c-0.9,5.6,1.4,12,1.6,18c0,2.1-0.9,3.9-1.6,6c-1.6-1.4-3.9-2.5-4.4-4.4c-2.5-10.4-5.1-20.8-6-31.2
		c-0.9-9,0-17.8,0-28.5c-6.5,3.9-11.6,6.9-16.4,10c-1.4-11.3-2.1-20.8-3.9-30.3c-0.9-5.6-1.4-8.6,6-9c13.9-0.5,16.4-3.9,16-17.8
		c-0.5-5.6-1.4-12.5,1.6-16.4c2.1-3.5,9.5-3.5,14.3-5.1c3-0.9,6-1.6,9-2.1c3-0.5,8.1-1.4,9.5,0c1.6,2.1,1.6,6.5,0.9,10
		C1860.7,505.1,1857.9,510.7,1855.4,517.6z"/>
	<path d="M1773.2,561.8c-1.4,5.1-1.4,10.4-3.9,14.8c-3.9,7.4-9,14.3-19,13.9c-10.4-0.5-16.9-7.4-20.4-15c-3-6.5-3.5-16-0.9-22.4
		c5.1-13,11.6-25.9,20.8-36.3c6-6.9,17.4-10.4,26.4-13c12-2.5,13.9,9,16,16.4c4.9,14.8-0.9,27.8-10.9,38.9
		C1780.2,560.9,1776.2,560.9,1773.2,561.8c-10,0-19.9,0-30.8,0c2.5,6.9,5.1,12,13.9,7.9C1762.1,566.5,1767.7,564.4,1773.2,561.8z
		 M1745.7,548.4c1.4,0.9,2.1,1.6,3.5,3c3-1.6,7.9-3,8.6-5.6c2.1-6,2.1-12.5,3-18.5c-2.1,0-5.1-0.5-5.6,0.5
		C1751.3,534.1,1748.2,541.5,1745.7,548.4z"/>
	<path d="M1848.4,790c3.9,26.4-21.3,32.9-43.3,23.4c-2.5-0.9-5.1-1.4-8.1-1.6c0,3.5-0.5,7.4,0.9,10.4c0.5,1.4,4.9,2.1,7.4,1.6
		c4.4-0.5,8.1-3.5,12.5-3.5c3.5,0,7.9,2.1,10.4,4.9c0.9,1.4-0.9,6.9-3,9c-12.5,11.3-24.3,10.9-38.4,0c-9-6.9-11.3-25-5.1-39.3
		c8.6-20.4,24.3-31.5,46.3-34.2c12-1.4,20.4,6,20.8,19.4C1848.4,783.1,1848.4,786.1,1848.4,790z M1810.5,811.3
		c15.5-19.9,15.5-32.9,0.9-40.3c-6,5.1-12.5,10.9-16.4,14.3C1800.5,794.9,1805.6,803,1810.5,811.3z"/>
	<path d="M1736.4,806.9c7.9,1.6,15,3.9,26.4,6.5c-6,6.5-11.6,16.4-16,16c-9-0.9-18.5-5.6-25.9-11.6c-9-7.4-7.4-19.4-5.6-29.4
		c5.6-33.3,23.8-46.7,54.1-32.9c3.5,1.6,7.9,6.9,8.1,10.9c0.9,8.6,1.6,18.5-1.4,26.4c-6.5,14.8-16,17.8-32.4,12.5
		c-2.1-0.5-4.4-0.9-6.9-1.4C1736.9,805,1736.9,806,1736.4,806.9z M1738.3,758.1c-5.1,7.9-9,14.3-13,19.9c3.5,3.9,4.9,7.4,7.9,9
		c5.1,2.5,10.9,4.9,16.4,6c1.6,0.5,5.1-2.5,5.6-4.9c4.4-11.3-0.9-21.3-12-26.4C1741.8,761.5,1740.8,760.1,1738.3,758.1z"/>
	<path d="M1522.2,549.6c1.4,3.5,4.4,9.5,3,10c-6.5,5.1-13.4,11.3-21.5,13.4c-8.6,2.5-17.8-5.1-21.5-17.4c-3.5,4.4-6.5,7.4-9,11.3
		c-5.1,7.9-12,12-21.3,13c-6,0.5-8.6-3.5-8.1-8.1c2.5-20.4,6.9-40.3,15.5-58.3c2.1-4.9,9.5-9,15-10c3.5-0.5,10,5.1,11.6,9
		c3,7.9,8.1,14.8,6.9,24.5c-0.9,6.5,6.5,15.5,12.5,20.8c4.4,3.5,12.5,1.6,13.4-8.1C1520.3,549.6,1521.2,549.6,1522.2,549.6z
		 M1465,557.9c0.9,0.5,2.1,0.5,3,0.9c10-9.5,13.9-20.8,10.9-34.5c-0.9-0.5-2.1-0.9-3-0.9C1472.4,535,1468.5,546.6,1465,557.9z"/>
	<path d="M1422.7,560.9c-2.1,0-6,0-8.1,0c-1.4-10.4-1.6-19-3-27.8c-4.4-23.8-9.5-47.4-13.4-71.3c-0.5-3,2.1-7.4,4.4-10
		c4.9-5.6,10.4-10.4,16-15c2.5-2.1,7.4-4.9,8.1-3.5c3,2.1,5.6,6.5,6,10c0.9,6.9,0.5,13.9-0.5,20.8c-3,22.9-6.9,46.3-9.5,69.2
		C1421.7,541.9,1422.7,550.5,1422.7,560.9z"/>
	<path d="M1982.9,846.7c-13.9-4.9-16.4-16.9-19-28.9c-1.6-8.1,3.5-12,10.4-14.3c6.9-2.1,23.4,7.4,25,14.3c0.5,1.6,0.9,3.9,0,4.9
		C1994.2,830.7,1988.7,838.4,1982.9,846.7z"/>
	<path d="M859.4,733.3c-20.4,0-42.3-15.5-45.4-30.3c-2.1-9.5,0.9-17.8,7.4-24.3c2.1-2.1,9.5-1.4,13.4,0.5c3.9,1.6,6.5,6.5,10,9.5
		c10.4,9,21.5,9.5,31.9,1.4c2.5-1.6,4.9-5.1,7.4-5.1c5.1-0.5,10.9-0.5,16,1.4c1.6,0.5,3,6.5,2.5,9.5c-2.5,16.4-9.5,29.9-33.8,35.9
		C864.5,732.6,860.8,732.8,859.4,733.3z"/>
	<path d="M1037.8,652.5c-6-1.4-13-1.4-17.4-4.9c-8.1-6-14.8-14.8-22-22c1.4-1.4,2.1-2.5,3.5-3.9c12,9.5,24.3,19,36.3,28.9
		C1037.8,651.2,1037.8,652.1,1037.8,652.5z"/>
	<path fill="#FFFFFF" d="M1313.2,548c0-12,0.5-22.9,0-34.2c-0.5-11.6,8.6-13.9,16-15.5c5.6-1.6,14.3-1.4,17.8,1.6
		c8.6,7.9,10.4,19.4,8.1,31.2c-1.6,11.6-10.4,17.4-20.4,19C1328.5,551,1321.5,548.9,1313.2,548z"/>
	<path fill="#FFFFFF" d="M1315.1,492.6c1.6-11.3,2.1-21.5,5.1-31.5c1.4-4.9,7.4-9.5,12-10.9c2.5-0.9,9,5.1,10.4,9
		c1.4,4.4-0.5,11.3-3.5,14.3C1332.9,480.4,1324.1,485.7,1315.1,492.6z"/>
	<path fill="#FFFFFF" d="M1886.2,816.8c0-11.3,17.8-27.3,28.9-26.8c8.1,0.5,8.6,6.9,9.5,12.5c2.5,15-1.6,25.9-13.9,31.2
		C1899.6,838.8,1886.2,830.3,1886.2,816.8z"/>
	<path fill="#FFFFFF" d="M1745.7,548.4c3-6.9,5.6-14.3,9-21.3c0.5-0.9,3.9-0.5,5.6-0.5c-0.9,6.5-0.9,13-3,18.5
		c-0.9,2.5-5.6,3.9-8.6,5.6C1747.8,550.5,1746.4,549.1,1745.7,548.4z"/>
	<path fill="#FFFFFF" d="M1773.2,561.8c-5.6,2.5-11.3,4.9-16.4,7.9c-8.6,4.9-11.3-0.9-13.9-7.9
		C1753.3,561.8,1763.3,561.8,1773.2,561.8L1773.2,561.8z"/>
	<path fill="#FFFFFF" d="M1810.5,811.3c-4.9-8.1-10-16.4-15-25.9c3.9-3.5,10.4-8.6,16.4-14.3C1826,778.4,1826,791.4,1810.5,811.3z"
		/>
	<path fill="#FFFFFF" d="M1738.3,758.1c2.5,2.1,3.5,3,4.9,3.5c11.6,4.9,16.4,14.8,12,26.4c-0.9,2.1-4.4,5.1-5.6,4.9
		c-5.6-1.4-11.3-3.5-16.4-6c-2.5-1.4-4.4-4.9-7.9-9C1729.3,772.2,1733,765.7,1738.3,758.1z"/>
	<path fill="#FFFFFF" d="M1465,557.9c3.5-11.6,7.4-22.9,10.9-34.5c0.9,0.5,2.1,0.9,3,0.9c2.5,13.4-1.4,25-10.9,34.5
		C1466.9,558.8,1465.9,558.4,1465,557.9z"/>
</g>
</svg>
